# xmcd
#
# Track frame offsets: 
#        150
#        8902
#        28575
#        49863
#        67635
#        76316
#        96045
#        122262
#        144600
#
# Disc length: 2067 seconds
#
# Revision: 2
# Processed by: cddbd v1.5.2PL0 Copyright (c) Steve Scherf et al.
# Submitted via: ExactAudioCopyFreeDBPlugin 1.0
#
DISCID=64081109
DTITLE=闇アガリ - Ad-Vibes
DYEAR=2003
DGENRE=Hip-Hop
TTITLE0=Intro
TTITLE1=Impatience
TTITLE2=Y2mc
TTITLE3=狼
TTITLE4=Interlude
TTITLE5=頂
TTITLE6=Nonfiction
TTITLE7=一期一会
TTITLE8=Outro
EXTD=Powerd by gracenote music web API
EXTT0=
EXTT1=
EXTT2=
EXTT3=
EXTT4=
EXTT5=
EXTT6=
EXTT7=
EXTT8=
PLAYORDER=
